<?xml version="1.0" encoding="UTF-8" standalone="no"?>
<!DOCTYPE svg PUBLIC "-//W3C//DTD SVG 1.1//EN" "http://www.w3.org/Graphics/SVG/1.1/DTD/svg11.dtd">
<svg version="1.1" xmlns="http://www.w3.org/2000/svg" xmlns:xlink="http://www.w3.org/1999/xlink" preserveAspectRatio="xMidYMid meet" viewBox="13.6875 13.6875 723.6875 723.6875" width="719.69" height="719.69"><defs><path d="M58.75 14.69C66.86 14.69 73.44 21.26 73.44 29.38C73.44 38.19 73.44 49.94 73.44 58.75C73.44 66.86 66.86 73.44 58.75 73.44C49.94 73.44 38.19 73.44 29.38 73.44C21.26 73.44 14.69 66.86 14.69 58.75C14.69 49.94 14.69 38.19 14.69 29.38C14.69 21.26 21.26 14.69 29.38 14.69C38.19 14.69 49.94 14.69 58.75 14.69Z" id="azNUJzP9v"></path><path d="M132.19 14.69C140.3 14.69 146.88 21.26 146.88 29.38C146.88 38.19 146.88 49.94 146.88 58.75C146.88 66.86 140.3 73.44 132.19 73.44C123.38 73.44 111.63 73.44 102.81 73.44C94.7 73.44 88.13 66.86 88.13 58.75C88.13 49.94 88.13 38.19 88.13 29.38C88.13 21.26 94.7 14.69 102.81 14.69C111.63 14.69 123.38 14.69 132.19 14.69Z" id="iWfPgkPbV"></path><path d="M205.63 14.69C213.74 14.69 220.31 21.26 220.31 29.38C220.31 38.19 220.31 49.94 220.31 58.75C220.31 66.86 213.74 73.44 205.63 73.44C196.81 73.44 185.06 73.44 176.25 73.44C168.14 73.44 161.56 66.86 161.56 58.75C161.56 49.94 161.56 38.19 161.56 29.38C161.56 21.26 168.14 14.69 176.25 14.69C185.06 14.69 196.81 14.69 205.63 14.69Z" id="e1l1furpDV"></path><path d="M279.06 14.69C287.17 14.69 293.75 21.26 293.75 29.38C293.75 38.19 293.75 49.94 293.75 58.75C293.75 66.86 287.17 73.44 279.06 73.44C270.25 73.44 258.5 73.44 249.69 73.44C241.58 73.44 235 66.86 235 58.75C235 49.94 235 38.19 235 29.38C235 21.26 241.58 14.69 249.69 14.69C258.5 14.69 270.25 14.69 279.06 14.69Z" id="bmTsm1sRb"></path><path d="M58.75 88.13C66.86 88.13 73.44 94.7 73.44 102.81C73.44 111.63 73.44 123.38 73.44 132.19C73.44 140.3 66.86 146.88 58.75 146.88C49.94 146.88 38.19 146.88 29.38 146.88C21.26 146.88 14.69 140.3 14.69 132.19C14.69 123.38 14.69 111.63 14.69 102.81C14.69 94.7 21.26 88.13 29.38 88.13C38.19 88.13 49.94 88.13 58.75 88.13Z" id="dgFxKZI6O"></path><path d="M132.19 88.13C140.3 88.13 146.88 94.7 146.88 102.81C146.88 111.63 146.88 123.38 146.88 132.19C146.88 140.3 140.3 146.88 132.19 146.88C123.38 146.88 111.63 146.88 102.81 146.88C94.7 146.88 88.13 140.3 88.13 132.19C88.13 123.38 88.13 111.63 88.13 102.81C88.13 94.7 94.7 88.13 102.81 88.13C111.63 88.13 123.38 88.13 132.19 88.13Z" id="f1WiMkOYtA"></path><path d="M205.63 88.13C213.74 88.13 220.31 94.7 220.31 102.81C220.31 111.63 220.31 123.38 220.31 132.19C220.31 140.3 213.74 146.88 205.63 146.88C196.81 146.88 185.06 146.88 176.25 146.88C168.14 146.88 161.56 140.3 161.56 132.19C161.56 123.38 161.56 111.63 161.56 102.81C161.56 94.7 168.14 88.13 176.25 88.13C185.06 88.13 196.81 88.13 205.63 88.13Z" id="a4Sk88ByEB"></path><path d="M279.06 88.13C287.17 88.13 293.75 94.7 293.75 102.81C293.75 111.63 293.75 123.38 293.75 132.19C293.75 140.3 287.17 146.88 279.06 146.88C270.25 146.88 258.5 146.88 249.69 146.88C241.58 146.88 235 140.3 235 132.19C235 123.38 235 111.63 235 102.81C235 94.7 241.58 88.13 249.69 88.13C258.5 88.13 270.25 88.13 279.06 88.13Z" id="fnzHtAS1P"></path><path d="M58.75 161.56C66.86 161.56 73.44 168.14 73.44 176.25C73.44 185.06 73.44 196.81 73.44 205.63C73.44 213.74 66.86 220.31 58.75 220.31C49.94 220.31 38.19 220.31 29.38 220.31C21.26 220.31 14.69 213.74 14.69 205.63C14.69 196.81 14.69 185.06 14.69 176.25C14.69 168.14 21.26 161.56 29.38 161.56C38.19 161.56 49.94 161.56 58.75 161.56Z" id="g2hUMz8a"></path><path d="M132.19 161.56C140.3 161.56 146.88 168.14 146.88 176.25C146.88 185.06 146.88 196.81 146.88 205.63C146.88 213.74 140.3 220.31 132.19 220.31C123.38 220.31 111.63 220.31 102.81 220.31C94.7 220.31 88.13 213.74 88.13 205.63C88.13 196.81 88.13 185.06 88.13 176.25C88.13 168.14 94.7 161.56 102.81 161.56C111.63 161.56 123.38 161.56 132.19 161.56Z" id="ap0emTJUn"></path><path d="M205.63 161.56C213.74 161.56 220.31 168.14 220.31 176.25C220.31 185.06 220.31 196.81 220.31 205.63C220.31 213.74 213.74 220.31 205.63 220.31C196.81 220.31 185.06 220.31 176.25 220.31C168.14 220.31 161.56 213.74 161.56 205.63C161.56 196.81 161.56 185.06 161.56 176.25C161.56 168.14 168.14 161.56 176.25 161.56C185.06 161.56 196.81 161.56 205.63 161.56Z" id="d8WIPZjYG"></path><path d="M279.06 161.56C287.17 161.56 293.75 168.14 293.75 176.25C293.75 185.06 293.75 196.81 293.75 205.63C293.75 213.74 287.17 220.31 279.06 220.31C270.25 220.31 258.5 220.31 249.69 220.31C241.58 220.31 235 213.74 235 205.63C235 196.81 235 185.06 235 176.25C235 168.14 241.58 161.56 249.69 161.56C258.5 161.56 270.25 161.56 279.06 161.56Z" id="a5vsQtGE"></path><path d="M58.75 235C66.86 235 73.44 241.58 73.44 249.69C73.44 258.5 73.44 270.25 73.44 279.06C73.44 287.17 66.86 293.75 58.75 293.75C49.94 293.75 38.19 293.75 29.38 293.75C21.26 293.75 14.69 287.17 14.69 279.06C14.69 270.25 14.69 258.5 14.69 249.69C14.69 241.58 21.26 235 29.38 235C38.19 235 49.94 235 58.75 235Z" id="b5lh6FSuL"></path><path d="M132.19 235C140.3 235 146.88 241.58 146.88 249.69C146.88 258.5 146.88 270.25 146.88 279.06C146.88 287.17 140.3 293.75 132.19 293.75C123.38 293.75 111.63 293.75 102.81 293.75C94.7 293.75 88.13 287.17 88.13 279.06C88.13 270.25 88.13 258.5 88.13 249.69C88.13 241.58 94.7 235 102.81 235C111.63 235 123.38 235 132.19 235Z" id="b3yE0h1Wdo"></path><path d="M205.63 235C213.74 235 220.31 241.58 220.31 249.69C220.31 258.5 220.31 270.25 220.31 279.06C220.31 287.17 213.74 293.75 205.63 293.75C196.81 293.75 185.06 293.75 176.25 293.75C168.14 293.75 161.56 287.17 161.56 279.06C161.56 270.25 161.56 258.5 161.56 249.69C161.56 241.58 168.14 235 176.25 235C185.06 235 196.81 235 205.63 235Z" id="a3tLPfmfC2"></path><path d="M279.06 235C287.17 235 293.75 241.58 293.75 249.69C293.75 258.5 293.75 270.25 293.75 279.06C293.75 287.17 287.17 293.75 279.06 293.75C270.25 293.75 258.5 293.75 249.69 293.75C241.58 293.75 235 287.17 235 279.06C235 270.25 235 258.5 235 249.69C235 241.58 241.58 235 249.69 235C258.5 235 270.25 235 279.06 235Z" id="c6ch6SRAT"></path><path d="M352.5 14.69C360.61 14.69 367.19 21.26 367.19 29.38C367.19 38.19 367.19 49.94 367.19 58.75C367.19 66.86 360.61 73.44 352.5 73.44C343.69 73.44 331.94 73.44 323.13 73.44C315.01 73.44 308.44 66.86 308.44 58.75C308.44 49.94 308.44 38.19 308.44 29.38C308.44 21.26 315.01 14.69 323.13 14.69C331.94 14.69 343.69 14.69 352.5 14.69Z" id="b4UKUQqGjQ"></path><path d="M352.5 88.13C360.61 88.13 367.19 94.7 367.19 102.81C367.19 111.63 367.19 123.38 367.19 132.19C367.19 140.3 360.61 146.88 352.5 146.88C343.69 146.88 331.94 146.88 323.13 146.88C315.01 146.88 308.44 140.3 308.44 132.19C308.44 123.38 308.44 111.63 308.44 102.81C308.44 94.7 315.01 88.13 323.13 88.13C331.94 88.13 343.69 88.13 352.5 88.13Z" id="ac59xZXat"></path><path d="M352.5 161.56C360.61 161.56 367.19 168.14 367.19 176.25C367.19 185.06 367.19 196.81 367.19 205.63C367.19 213.74 360.61 220.31 352.5 220.31C343.69 220.31 331.94 220.31 323.13 220.31C315.01 220.31 308.44 213.74 308.44 205.63C308.44 196.81 308.44 185.06 308.44 176.25C308.44 168.14 315.01 161.56 323.13 161.56C331.94 161.56 343.69 161.56 352.5 161.56Z" id="e1ijFo1LcD"></path><path d="M352.5 235C360.61 235 367.19 241.58 367.19 249.69C367.19 258.5 367.19 270.25 367.19 279.06C367.19 287.17 360.61 293.75 352.5 293.75C343.69 293.75 331.94 293.75 323.13 293.75C315.01 293.75 308.44 287.17 308.44 279.06C308.44 270.25 308.44 258.5 308.44 249.69C308.44 241.58 315.01 235 323.13 235C331.94 235 343.69 235 352.5 235Z" id="a1rflYSrKo"></path><path d="M425.94 14.69C434.05 14.69 440.63 21.26 440.63 29.38C440.63 38.19 440.63 49.94 440.63 58.75C440.63 66.86 434.05 73.44 425.94 73.44C417.13 73.44 405.38 73.44 396.56 73.44C388.45 73.44 381.88 66.86 381.88 58.75C381.88 49.94 381.88 38.19 381.88 29.38C381.88 21.26 388.45 14.69 396.56 14.69C405.38 14.69 417.13 14.69 425.94 14.69Z" id="e7HEPYF7n"></path><path d="M425.94 88.13C434.05 88.13 440.63 94.7 440.63 102.81C440.63 111.63 440.63 123.38 440.63 132.19C440.63 140.3 434.05 146.88 425.94 146.88C417.13 146.88 405.38 146.88 396.56 146.88C388.45 146.88 381.88 140.3 381.88 132.19C381.88 123.38 381.88 111.63 381.88 102.81C381.88 94.7 388.45 88.13 396.56 88.13C405.38 88.13 417.13 88.13 425.94 88.13Z" id="oB5jLXdJ"></path><path d="M425.94 161.56C434.05 161.56 440.63 168.14 440.63 176.25C440.63 185.06 440.63 196.81 440.63 205.63C440.63 213.74 434.05 220.31 425.94 220.31C417.13 220.31 405.38 220.31 396.56 220.31C388.45 220.31 381.88 213.74 381.88 205.63C381.88 196.81 381.88 185.06 381.88 176.25C381.88 168.14 388.45 161.56 396.56 161.56C405.38 161.56 417.13 161.56 425.94 161.56Z" id="a2RL5UOy3g"></path><path d="M425.94 235C434.05 235 440.63 241.58 440.63 249.69C440.63 258.5 440.63 270.25 440.63 279.06C440.63 287.17 434.05 293.75 425.94 293.75C417.13 293.75 405.38 293.75 396.56 293.75C388.45 293.75 381.88 287.17 381.88 279.06C381.88 270.25 381.88 258.5 381.88 249.69C381.88 241.58 388.45 235 396.56 235C405.38 235 417.13 235 425.94 235Z" id="b1kKRF6S3O"></path><path d="M58.75 308.44C66.86 308.44 73.44 315.01 73.44 323.13C73.44 331.94 73.44 343.69 73.44 352.5C73.44 360.61 66.86 367.19 58.75 367.19C49.94 367.19 38.19 367.19 29.38 367.19C21.26 367.19 14.69 360.61 14.69 352.5C14.69 343.69 14.69 331.94 14.69 323.13C14.69 315.01 21.26 308.44 29.38 308.44C38.19 308.44 49.94 308.44 58.75 308.44Z" id="cb6eiDHNZ"></path><path d="M132.19 308.44C140.3 308.44 146.88 315.01 146.88 323.13C146.88 331.94 146.88 343.69 146.88 352.5C146.88 360.61 140.3 367.19 132.19 367.19C123.38 367.19 111.63 367.19 102.81 367.19C94.7 367.19 88.13 360.61 88.13 352.5C88.13 343.69 88.13 331.94 88.13 323.13C88.13 315.01 94.7 308.44 102.81 308.44C111.63 308.44 123.38 308.44 132.19 308.44Z" id="ai8lTD59N"></path><path d="M205.63 308.44C213.74 308.44 220.31 315.01 220.31 323.13C220.31 331.94 220.31 343.69 220.31 352.5C220.31 360.61 213.74 367.19 205.63 367.19C196.81 367.19 185.06 367.19 176.25 367.19C168.14 367.19 161.56 360.61 161.56 352.5C161.56 343.69 161.56 331.94 161.56 323.13C161.56 315.01 168.14 308.44 176.25 308.44C185.06 308.44 196.81 308.44 205.63 308.44Z" id="c76PmVQRQ"></path><path d="M279.06 308.44C287.17 308.44 293.75 315.01 293.75 323.13C293.75 331.94 293.75 343.69 293.75 352.5C293.75 360.61 287.17 367.19 279.06 367.19C270.25 367.19 258.5 367.19 249.69 367.19C241.58 367.19 235 360.61 235 352.5C235 343.69 235 331.94 235 323.13C235 315.01 241.58 308.44 249.69 308.44C258.5 308.44 270.25 308.44 279.06 308.44Z" id="beynoXYnJ"></path><path d="M58.75 381.88C66.86 381.88 73.44 388.45 73.44 396.56C73.44 405.38 73.44 417.13 73.44 425.94C73.44 434.05 66.86 440.63 58.75 440.63C49.94 440.63 38.19 440.63 29.38 440.63C21.26 440.63 14.69 434.05 14.69 425.94C14.69 417.13 14.69 405.38 14.69 396.56C14.69 388.45 21.26 381.88 29.38 381.88C38.19 381.88 49.94 381.88 58.75 381.88Z" id="a101yMSIB"></path><path d="M132.19 381.88C140.3 381.88 146.88 388.45 146.88 396.56C146.88 405.38 146.88 417.13 146.88 425.94C146.88 434.05 140.3 440.63 132.19 440.63C123.38 440.63 111.63 440.63 102.81 440.63C94.7 440.63 88.13 434.05 88.13 425.94C88.13 417.13 88.13 405.38 88.13 396.56C88.13 388.45 94.7 381.88 102.81 381.88C111.63 381.88 123.38 381.88 132.19 381.88Z" id="buFAgbdq2"></path><path d="M205.63 381.88C213.74 381.88 220.31 388.45 220.31 396.56C220.31 405.38 220.31 417.13 220.31 425.94C220.31 434.05 213.74 440.63 205.63 440.63C196.81 440.63 185.06 440.63 176.25 440.63C168.14 440.63 161.56 434.05 161.56 425.94C161.56 417.13 161.56 405.38 161.56 396.56C161.56 388.45 168.14 381.88 176.25 381.88C185.06 381.88 196.81 381.88 205.63 381.88Z" id="a6pk8B75Tm"></path><path d="M279.06 381.88C287.17 381.88 293.75 388.45 293.75 396.56C293.75 405.38 293.75 417.13 293.75 425.94C293.75 434.05 287.17 440.63 279.06 440.63C270.25 440.63 258.5 440.63 249.69 440.63C241.58 440.63 235 434.05 235 425.94C235 417.13 235 405.38 235 396.56C235 388.45 241.58 381.88 249.69 381.88C258.5 381.88 270.25 381.88 279.06 381.88Z" id="bOZ5jWulX"></path><path d="M352.5 308.44C360.61 308.44 367.19 315.01 367.19 323.13C367.19 331.94 367.19 343.69 367.19 352.5C367.19 360.61 360.61 367.19 352.5 367.19C343.69 367.19 331.94 367.19 323.13 367.19C315.01 367.19 308.44 360.61 308.44 352.5C308.44 343.69 308.44 331.94 308.44 323.13C308.44 315.01 315.01 308.44 323.13 308.44C331.94 308.44 343.69 308.44 352.5 308.44Z" id="itHjGY76n"></path><path d="M352.5 381.88C360.61 381.88 367.19 388.45 367.19 396.56C367.19 405.38 367.19 417.13 367.19 425.94C367.19 434.05 360.61 440.63 352.5 440.63C343.69 440.63 331.94 440.63 323.13 440.63C315.01 440.63 308.44 434.05 308.44 425.94C308.44 417.13 308.44 405.38 308.44 396.56C308.44 388.45 315.01 381.88 323.13 381.88C331.94 381.88 343.69 381.88 352.5 381.88Z" id="b3bmfTiA5"></path><path d="M425.94 308.44C434.05 308.44 440.63 315.01 440.63 323.13C440.63 331.94 440.63 343.69 440.63 352.5C440.63 360.61 434.05 367.19 425.94 367.19C417.13 367.19 405.38 367.19 396.56 367.19C388.45 367.19 381.88 360.61 381.88 352.5C381.88 343.69 381.88 331.94 381.88 323.13C381.88 315.01 388.45 308.44 396.56 308.44C405.38 308.44 417.13 308.44 425.94 308.44Z" id="a1NW759D7e"></path><path d="M425.94 381.88C434.05 381.88 440.63 388.45 440.63 396.56C440.63 405.38 440.63 417.13 440.63 425.94C440.63 434.05 434.05 440.63 425.94 440.63C417.13 440.63 405.38 440.63 396.56 440.63C388.45 440.63 381.88 434.05 381.88 425.94C381.88 417.13 381.88 405.38 381.88 396.56C381.88 388.45 388.45 381.88 396.56 381.88C405.38 381.88 417.13 381.88 425.94 381.88Z" id="r3xfzrsGD"></path><path d="M499.38 14.69C507.49 14.69 514.06 21.26 514.06 29.38C514.06 38.19 514.06 49.94 514.06 58.75C514.06 66.86 507.49 73.44 499.38 73.44C490.56 73.44 478.81 73.44 470 73.44C461.89 73.44 455.31 66.86 455.31 58.75C455.31 49.94 455.31 38.19 455.31 29.38C455.31 21.26 461.89 14.69 470 14.69C478.81 14.69 490.56 14.69 499.38 14.69Z" id="a6bf69dwd5"></path><path d="M499.38 381.88C507.49 381.88 514.06 388.45 514.06 396.56C514.06 405.38 514.06 417.13 514.06 425.94C514.06 434.05 507.49 440.63 499.38 440.63C490.56 440.63 478.81 440.63 470 440.63C461.89 440.63 455.31 434.05 455.31 425.94C455.31 417.13 455.31 405.38 455.31 396.56C455.31 388.45 461.89 381.88 470 381.88C478.81 381.88 490.56 381.88 499.38 381.88Z" id="bE32LxDPb"></path><path d="M572.81 308.44C580.92 308.44 587.5 315.01 587.5 323.13C587.5 331.94 587.5 343.69 587.5 352.5C587.5 360.61 580.92 367.19 572.81 367.19C564 367.19 552.25 367.19 543.44 367.19C535.33 367.19 528.75 360.61 528.75 352.5C528.75 343.69 528.75 331.94 528.75 323.13C528.75 315.01 535.33 308.44 543.44 308.44C552.25 308.44 564 308.44 572.81 308.44Z" id="c5vEk4DbZ"></path><path d="M572.81 381.88C580.92 381.88 587.5 388.45 587.5 396.56C587.5 405.38 587.5 417.13 587.5 425.94C587.5 434.05 580.92 440.63 572.81 440.63C564 440.63 552.25 440.63 543.44 440.63C535.33 440.63 528.75 434.05 528.75 425.94C528.75 417.13 528.75 405.38 528.75 396.56C528.75 388.45 535.33 381.88 543.44 381.88C552.25 381.88 564 381.88 572.81 381.88Z" id="frtnK8UOq"></path><path d="M499.38 455.31C507.49 455.31 514.06 461.89 514.06 470C514.06 478.81 514.06 490.56 514.06 499.38C514.06 507.49 507.49 514.06 499.38 514.06C490.56 514.06 478.81 514.06 470 514.06C461.89 514.06 455.31 507.49 455.31 499.38C455.31 490.56 455.31 478.81 455.31 470C455.31 461.89 461.89 455.31 470 455.31C478.81 455.31 490.56 455.31 499.38 455.31Z" id="aAhgshDn"></path><path d="M499.38 528.75C507.49 528.75 514.06 535.33 514.06 543.44C514.06 552.25 514.06 564 514.06 572.81C514.06 580.92 507.49 587.5 499.38 587.5C490.56 587.5 478.81 587.5 470 587.5C461.89 587.5 455.31 580.92 455.31 572.81C455.31 564 455.31 552.25 455.31 543.44C455.31 535.33 461.89 528.75 470 528.75C478.81 528.75 490.56 528.75 499.38 528.75Z" id="c4BENdqjm"></path><path d="M572.81 455.31C580.92 455.31 587.5 461.89 587.5 470C587.5 478.81 587.5 490.56 587.5 499.38C587.5 507.49 580.92 514.06 572.81 514.06C564 514.06 552.25 514.06 543.44 514.06C535.33 514.06 528.75 507.49 528.75 499.38C528.75 490.56 528.75 478.81 528.75 470C528.75 461.89 535.33 455.31 543.44 455.31C552.25 455.31 564 455.31 572.81 455.31Z" id="bpjzn4sMa"></path><path d="M572.81 528.75C580.92 528.75 587.5 535.33 587.5 543.44C587.5 552.25 587.5 564 587.5 572.81C587.5 580.92 580.92 587.5 572.81 587.5C564 587.5 552.25 587.5 543.44 587.5C535.33 587.5 528.75 580.92 528.75 572.81C528.75 564 528.75 552.25 528.75 543.44C528.75 535.33 535.33 528.75 543.44 528.75C552.25 528.75 564 528.75 572.81 528.75Z" id="j2T6eKYEi"></path><path d="M499.38 602.19C507.49 602.19 514.06 608.76 514.06 616.88C514.06 625.69 514.06 637.44 514.06 646.25C514.06 654.36 507.49 660.94 499.38 660.94C490.56 660.94 478.81 660.94 470 660.94C461.89 660.94 455.31 654.36 455.31 646.25C455.31 637.44 455.31 625.69 455.31 616.88C455.31 608.76 461.89 602.19 470 602.19C478.81 602.19 490.56 602.19 499.38 602.19Z" id="b1zU6u3sGO"></path><path d="M499.38 675.63C507.49 675.63 514.06 682.2 514.06 690.31C514.06 699.13 514.06 710.88 514.06 719.69C514.06 727.8 507.49 734.38 499.38 734.38C490.56 734.38 478.81 734.38 470 734.38C461.89 734.38 455.31 727.8 455.31 719.69C455.31 710.88 455.31 699.13 455.31 690.31C455.31 682.2 461.89 675.63 470 675.63C478.81 675.63 490.56 675.63 499.38 675.63Z" id="a2Tv1Ikl0I"></path><path d="M572.81 602.19C580.92 602.19 587.5 608.76 587.5 616.88C587.5 625.69 587.5 637.44 587.5 646.25C587.5 654.36 580.92 660.94 572.81 660.94C564 660.94 552.25 660.94 543.44 660.94C535.33 660.94 528.75 654.36 528.75 646.25C528.75 637.44 528.75 625.69 528.75 616.88C528.75 608.76 535.33 602.19 543.44 602.19C552.25 602.19 564 602.19 572.81 602.19Z" id="a34Qy6H5BH"></path><path d="M572.81 675.63C580.92 675.63 587.5 682.2 587.5 690.31C587.5 699.13 587.5 710.88 587.5 719.69C587.5 727.8 580.92 734.38 572.81 734.38C564 734.38 552.25 734.38 543.44 734.38C535.33 734.38 528.75 727.8 528.75 719.69C528.75 710.88 528.75 699.13 528.75 690.31C528.75 682.2 535.33 675.63 543.44 675.63C552.25 675.63 564 675.63 572.81 675.63Z" id="aFnUuVvcX"></path><path d="M58.75 455.31C66.86 455.31 73.44 461.89 73.44 470C73.44 478.81 73.44 490.56 73.44 499.38C73.44 507.49 66.86 514.06 58.75 514.06C49.94 514.06 38.19 514.06 29.38 514.06C21.26 514.06 14.69 507.49 14.69 499.38C14.69 490.56 14.69 478.81 14.69 470C14.69 461.89 21.26 455.31 29.38 455.31C38.19 455.31 49.94 455.31 58.75 455.31Z" id="bxPGs19kj"></path><path d="M572.81 88.13C580.92 88.13 587.5 94.7 587.5 102.81C587.5 111.63 587.5 123.38 587.5 132.19C587.5 140.3 580.92 146.88 572.81 146.88C564 146.88 552.25 146.88 543.44 146.88C535.33 146.88 528.75 140.3 528.75 132.19C528.75 123.38 528.75 111.63 528.75 102.81C528.75 94.7 535.33 88.13 543.44 88.13C552.25 88.13 564 88.13 572.81 88.13Z" id="b2oeAIwdvp"></path><path d="M572.81 161.56C580.92 161.56 587.5 168.14 587.5 176.25C587.5 185.06 587.5 196.81 587.5 205.63C587.5 213.74 580.92 220.31 572.81 220.31C564 220.31 552.25 220.31 543.44 220.31C535.33 220.31 528.75 213.74 528.75 205.63C528.75 196.81 528.75 185.06 528.75 176.25C528.75 168.14 535.33 161.56 543.44 161.56C552.25 161.56 564 161.56 572.81 161.56Z" id="bJ71IuQr"></path><path d="M572.81 235C580.92 235 587.5 241.58 587.5 249.69C587.5 258.5 587.5 270.25 587.5 279.06C587.5 287.17 580.92 293.75 572.81 293.75C564 293.75 552.25 293.75 543.44 293.75C535.33 293.75 528.75 287.17 528.75 279.06C528.75 270.25 528.75 258.5 528.75 249.69C528.75 241.58 535.33 235 543.44 235C552.25 235 564 235 572.81 235Z" id="a1hbSxLgSz"></path><path d="M499.38 308.44C507.49 308.44 514.06 315.01 514.06 323.13C514.06 331.94 514.06 343.69 514.06 352.5C514.06 360.61 507.49 367.19 499.38 367.19C490.56 367.19 478.81 367.19 470 367.19C461.89 367.19 455.31 360.61 455.31 352.5C455.31 343.69 455.31 331.94 455.31 323.13C455.31 315.01 461.89 308.44 470 308.44C478.81 308.44 490.56 308.44 499.38 308.44Z" id="a2Dc5h67x"></path><path d="M132.19 455.31C140.3 455.31 146.88 461.89 146.88 470C146.88 478.81 146.88 490.56 146.88 499.38C146.88 507.49 140.3 514.06 132.19 514.06C123.38 514.06 111.63 514.06 102.81 514.06C94.7 514.06 88.13 507.49 88.13 499.38C88.13 490.56 88.13 478.81 88.13 470C88.13 461.89 94.7 455.31 102.81 455.31C111.63 455.31 123.38 455.31 132.19 455.31Z" id="bzH4QnHY"></path><path d="M205.63 455.31C213.74 455.31 220.31 461.89 220.31 470C220.31 478.81 220.31 490.56 220.31 499.38C220.31 507.49 213.74 514.06 205.63 514.06C196.81 514.06 185.06 514.06 176.25 514.06C168.14 514.06 161.56 507.49 161.56 499.38C161.56 490.56 161.56 478.81 161.56 470C161.56 461.89 168.14 455.31 176.25 455.31C185.06 455.31 196.81 455.31 205.63 455.31Z" id="a3fRV0JBNO"></path><path d="M279.06 455.31C287.17 455.31 293.75 461.89 293.75 470C293.75 478.81 293.75 490.56 293.75 499.38C293.75 507.49 287.17 514.06 279.06 514.06C270.25 514.06 258.5 514.06 249.69 514.06C241.58 514.06 235 507.49 235 499.38C235 490.56 235 478.81 235 470C235 461.89 241.58 455.31 249.69 455.31C258.5 455.31 270.25 455.31 279.06 455.31Z" id="e15LdeEre9"></path><path d="M58.75 528.75C66.86 528.75 73.44 535.33 73.44 543.44C73.44 552.25 73.44 564 73.44 572.81C73.44 580.92 66.86 587.5 58.75 587.5C49.94 587.5 38.19 587.5 29.38 587.5C21.26 587.5 14.69 580.92 14.69 572.81C14.69 564 14.69 552.25 14.69 543.44C14.69 535.33 21.26 528.75 29.38 528.75C38.19 528.75 49.94 528.75 58.75 528.75Z" id="a2NPi56I7"></path><path d="M132.19 528.75C140.3 528.75 146.88 535.33 146.88 543.44C146.88 552.25 146.88 564 146.88 572.81C146.88 580.92 140.3 587.5 132.19 587.5C123.38 587.5 111.63 587.5 102.81 587.5C94.7 587.5 88.13 580.92 88.13 572.81C88.13 564 88.13 552.25 88.13 543.44C88.13 535.33 94.7 528.75 102.81 528.75C111.63 528.75 123.38 528.75 132.19 528.75Z" id="f1Bs81thPv"></path><path d="M205.63 528.75C213.74 528.75 220.31 535.33 220.31 543.44C220.31 552.25 220.31 564 220.31 572.81C220.31 580.92 213.74 587.5 205.63 587.5C196.81 587.5 185.06 587.5 176.25 587.5C168.14 587.5 161.56 580.92 161.56 572.81C161.56 564 161.56 552.25 161.56 543.44C161.56 535.33 168.14 528.75 176.25 528.75C185.06 528.75 196.81 528.75 205.63 528.75Z" id="a2A2gTn1R"></path><path d="M279.06 528.75C287.17 528.75 293.75 535.33 293.75 543.44C293.75 552.25 293.75 564 293.75 572.81C293.75 580.92 287.17 587.5 279.06 587.5C270.25 587.5 258.5 587.5 249.69 587.5C241.58 587.5 235 580.92 235 572.81C235 564 235 552.25 235 543.44C235 535.33 241.58 528.75 249.69 528.75C258.5 528.75 270.25 528.75 279.06 528.75Z" id="a1oGmtmu5B"></path><path d="M352.5 455.31C360.61 455.31 367.19 461.89 367.19 470C367.19 478.81 367.19 490.56 367.19 499.38C367.19 507.49 360.61 514.06 352.5 514.06C343.69 514.06 331.94 514.06 323.13 514.06C315.01 514.06 308.44 507.49 308.44 499.38C308.44 490.56 308.44 478.81 308.44 470C308.44 461.89 315.01 455.31 323.13 455.31C331.94 455.31 343.69 455.31 352.5 455.31Z" id="d8PnydAKz"></path><path d="M499.38 88.13C507.49 88.13 514.06 94.7 514.06 102.81C514.06 111.63 514.06 123.38 514.06 132.19C514.06 140.3 507.49 146.88 499.38 146.88C490.56 146.88 478.81 146.88 470 146.88C461.89 146.88 455.31 140.3 455.31 132.19C455.31 123.38 455.31 111.63 455.31 102.81C455.31 94.7 461.89 88.13 470 88.13C478.81 88.13 490.56 88.13 499.38 88.13Z" id="a1oTdhJpxN"></path><path d="M499.38 161.56C507.49 161.56 514.06 168.14 514.06 176.25C514.06 185.06 514.06 196.81 514.06 205.63C514.06 213.74 507.49 220.31 499.38 220.31C490.56 220.31 478.81 220.31 470 220.31C461.89 220.31 455.31 213.74 455.31 205.63C455.31 196.81 455.31 185.06 455.31 176.25C455.31 168.14 461.89 161.56 470 161.56C478.81 161.56 490.56 161.56 499.38 161.56Z" id="bjqrsk70n"></path><path d="M499.38 235C507.49 235 514.06 241.58 514.06 249.69C514.06 258.5 514.06 270.25 514.06 279.06C514.06 287.17 507.49 293.75 499.38 293.75C490.56 293.75 478.81 293.75 470 293.75C461.89 293.75 455.31 287.17 455.31 279.06C455.31 270.25 455.31 258.5 455.31 249.69C455.31 241.58 461.89 235 470 235C478.81 235 490.56 235 499.38 235Z" id="b8rVs39r7"></path><path d="M572.81 14.69C580.92 14.69 587.5 21.26 587.5 29.38C587.5 38.19 587.5 49.94 587.5 58.75C587.5 66.86 580.92 73.44 572.81 73.44C564 73.44 552.25 73.44 543.44 73.44C535.33 73.44 528.75 66.86 528.75 58.75C528.75 49.94 528.75 38.19 528.75 29.38C528.75 21.26 535.33 14.69 543.44 14.69C552.25 14.69 564 14.69 572.81 14.69Z" id="aoAZfFmAP"></path><path d="M352.5 528.75C360.61 528.75 367.19 535.33 367.19 543.44C367.19 552.25 367.19 564 367.19 572.81C367.19 580.92 360.61 587.5 352.5 587.5C343.69 587.5 331.94 587.5 323.13 587.5C315.01 587.5 308.44 580.92 308.44 572.81C308.44 564 308.44 552.25 308.44 543.44C308.44 535.33 315.01 528.75 323.13 528.75C331.94 528.75 343.69 528.75 352.5 528.75Z" id="e5ajtb9OFo"></path><path d="M425.94 455.31C434.05 455.31 440.63 461.89 440.63 470C440.63 478.81 440.63 490.56 440.63 499.38C440.63 507.49 434.05 514.06 425.94 514.06C417.13 514.06 405.38 514.06 396.56 514.06C388.45 514.06 381.88 507.49 381.88 499.38C381.88 490.56 381.88 478.81 381.88 470C381.88 461.89 388.45 455.31 396.56 455.31C405.38 455.31 417.13 455.31 425.94 455.31Z" id="d34B50ZSci"></path><path d="M425.94 528.75C434.05 528.75 440.63 535.33 440.63 543.44C440.63 552.25 440.63 564 440.63 572.81C440.63 580.92 434.05 587.5 425.94 587.5C417.13 587.5 405.38 587.5 396.56 587.5C388.45 587.5 381.88 580.92 381.88 572.81C381.88 564 381.88 552.25 381.88 543.44C381.88 535.33 388.45 528.75 396.56 528.75C405.38 528.75 417.13 528.75 425.94 528.75Z" id="a47cy6xpO5"></path><path d="M58.75 602.19C66.86 602.19 73.44 608.76 73.44 616.88C73.44 625.69 73.44 637.44 73.44 646.25C73.44 654.36 66.86 660.94 58.75 660.94C49.94 660.94 38.19 660.94 29.38 660.94C21.26 660.94 14.69 654.36 14.69 646.25C14.69 637.44 14.69 625.69 14.69 616.88C14.69 608.76 21.26 602.19 29.38 602.19C38.19 602.19 49.94 602.19 58.75 602.19Z" id="b62PV3q22"></path><path d="M132.19 602.19C140.3 602.19 146.88 608.76 146.88 616.88C146.88 625.69 146.88 637.44 146.88 646.25C146.88 654.36 140.3 660.94 132.19 660.94C123.38 660.94 111.63 660.94 102.81 660.94C94.7 660.94 88.13 654.36 88.13 646.25C88.13 637.44 88.13 625.69 88.13 616.88C88.13 608.76 94.7 602.19 102.81 602.19C111.63 602.19 123.38 602.19 132.19 602.19Z" id="eWY3yaUuk"></path><path d="M205.63 602.19C213.74 602.19 220.31 608.76 220.31 616.88C220.31 625.69 220.31 637.44 220.31 646.25C220.31 654.36 213.74 660.94 205.63 660.94C196.81 660.94 185.06 660.94 176.25 660.94C168.14 660.94 161.56 654.36 161.56 646.25C161.56 637.44 161.56 625.69 161.56 616.88C161.56 608.76 168.14 602.19 176.25 602.19C185.06 602.19 196.81 602.19 205.63 602.19Z" id="a7fCGhB1E"></path><path d="M279.06 602.19C287.17 602.19 293.75 608.76 293.75 616.88C293.75 625.69 293.75 637.44 293.75 646.25C293.75 654.36 287.17 660.94 279.06 660.94C270.25 660.94 258.5 660.94 249.69 660.94C241.58 660.94 235 654.36 235 646.25C235 637.44 235 625.69 235 616.88C235 608.76 241.58 602.19 249.69 602.19C258.5 602.19 270.25 602.19 279.06 602.19Z" id="ctVYYcTlR"></path><path d="M58.75 675.63C66.86 675.63 73.44 682.2 73.44 690.31C73.44 699.13 73.44 710.88 73.44 719.69C73.44 727.8 66.86 734.38 58.75 734.38C49.94 734.38 38.19 734.38 29.38 734.38C21.26 734.38 14.69 727.8 14.69 719.69C14.69 710.88 14.69 699.13 14.69 690.31C14.69 682.2 21.26 675.63 29.38 675.63C38.19 675.63 49.94 675.63 58.75 675.63Z" id="kP212axoW"></path><path d="M132.19 675.63C140.3 675.63 146.88 682.2 146.88 690.31C146.88 699.13 146.88 710.88 146.88 719.69C146.88 727.8 140.3 734.38 132.19 734.38C123.38 734.38 111.63 734.38 102.81 734.38C94.7 734.38 88.13 727.8 88.13 719.69C88.13 710.88 88.13 699.13 88.13 690.31C88.13 682.2 94.7 675.63 102.81 675.63C111.63 675.63 123.38 675.63 132.19 675.63Z" id="a8SSsvTrzF"></path><path d="M205.63 675.63C213.74 675.63 220.31 682.2 220.31 690.31C220.31 699.13 220.31 710.88 220.31 719.69C220.31 727.8 213.74 734.38 205.63 734.38C196.81 734.38 185.06 734.38 176.25 734.38C168.14 734.38 161.56 727.8 161.56 719.69C161.56 710.88 161.56 699.13 161.56 690.31C161.56 682.2 168.14 675.63 176.25 675.63C185.06 675.63 196.81 675.63 205.63 675.63Z" id="ckBtxkCOg"></path><path d="M279.06 675.63C287.17 675.63 293.75 682.2 293.75 690.31C293.75 699.13 293.75 710.88 293.75 719.69C293.75 727.8 287.17 734.38 279.06 734.38C270.25 734.38 258.5 734.38 249.69 734.38C241.58 734.38 235 727.8 235 719.69C235 710.88 235 699.13 235 690.31C235 682.2 241.58 675.63 249.69 675.63C258.5 675.63 270.25 675.63 279.06 675.63Z" id="b13hps0zTq"></path><path d="M352.5 602.19C360.61 602.19 367.19 608.76 367.19 616.88C367.19 625.69 367.19 637.44 367.19 646.25C367.19 654.36 360.61 660.94 352.5 660.94C343.69 660.94 331.94 660.94 323.13 660.94C315.01 660.94 308.44 654.36 308.44 646.25C308.44 637.44 308.44 625.69 308.44 616.88C308.44 608.76 315.01 602.19 323.13 602.19C331.94 602.19 343.69 602.19 352.5 602.19Z" id="h1wAWfcpnG"></path><path d="M352.5 675.63C360.61 675.63 367.19 682.2 367.19 690.31C367.19 699.13 367.19 710.88 367.19 719.69C367.19 727.8 360.61 734.38 352.5 734.38C343.69 734.38 331.94 734.38 323.13 734.38C315.01 734.38 308.44 727.8 308.44 719.69C308.44 710.88 308.44 699.13 308.44 690.31C308.44 682.2 315.01 675.63 323.13 675.63C331.94 675.63 343.69 675.63 352.5 675.63Z" id="i5LNm33lup"></path><path d="M425.94 602.19C434.05 602.19 440.63 608.76 440.63 616.88C440.63 625.69 440.63 637.44 440.63 646.25C440.63 654.36 434.05 660.94 425.94 660.94C417.13 660.94 405.38 660.94 396.56 660.94C388.45 660.94 381.88 654.36 381.88 646.25C381.88 637.44 381.88 625.69 381.88 616.88C381.88 608.76 388.45 602.19 396.56 602.19C405.38 602.19 417.13 602.19 425.94 602.19Z" id="fqffMdmzQ"></path><path d="M425.94 675.63C434.05 675.63 440.63 682.2 440.63 690.31C440.63 699.13 440.63 710.88 440.63 719.69C440.63 727.8 434.05 734.38 425.94 734.38C417.13 734.38 405.38 734.38 396.56 734.38C388.45 734.38 381.88 727.8 381.88 719.69C381.88 710.88 381.88 699.13 381.88 690.31C381.88 682.2 388.45 675.63 396.56 675.63C405.38 675.63 417.13 675.63 425.94 675.63Z" id="a3OyRlQxzp"></path><path d="M646.25 14.69C654.36 14.69 660.94 21.26 660.94 29.38C660.94 38.19 660.94 49.94 660.94 58.75C660.94 66.86 654.36 73.44 646.25 73.44C637.44 73.44 625.69 73.44 616.88 73.44C608.76 73.44 602.19 66.86 602.19 58.75C602.19 49.94 602.19 38.19 602.19 29.38C602.19 21.26 608.76 14.69 616.88 14.69C625.69 14.69 637.44 14.69 646.25 14.69Z" id="b1iP813QXw"></path><path d="M646.25 381.88C654.36 381.88 660.94 388.45 660.94 396.56C660.94 405.38 660.94 417.13 660.94 425.94C660.94 434.05 654.36 440.63 646.25 440.63C637.44 440.63 625.69 440.63 616.88 440.63C608.76 440.63 602.19 434.05 602.19 425.94C602.19 417.13 602.19 405.38 602.19 396.56C602.19 388.45 608.76 381.88 616.88 381.88C625.69 381.88 637.44 381.88 646.25 381.88Z" id="b54MGb30d8"></path><path d="M719.69 308.44C727.8 308.44 734.38 315.01 734.38 323.13C734.38 331.94 734.38 343.69 734.38 352.5C734.38 360.61 727.8 367.19 719.69 367.19C710.88 367.19 699.13 367.19 690.31 367.19C682.2 367.19 675.63 360.61 675.63 352.5C675.63 343.69 675.63 331.94 675.63 323.13C675.63 315.01 682.2 308.44 690.31 308.44C699.13 308.44 710.88 308.44 719.69 308.44Z" id="a4ArY8th4"></path><path d="M719.69 381.88C727.8 381.88 734.38 388.45 734.38 396.56C734.38 405.38 734.38 417.13 734.38 425.94C734.38 434.05 727.8 440.63 719.69 440.63C710.88 440.63 699.13 440.63 690.31 440.63C682.2 440.63 675.63 434.05 675.63 425.94C675.63 417.13 675.63 405.38 675.63 396.56C675.63 388.45 682.2 381.88 690.31 381.88C699.13 381.88 710.88 381.88 719.69 381.88Z" id="a9RVp73N"></path><path d="M646.25 455.31C654.36 455.31 660.94 461.89 660.94 470C660.94 478.81 660.94 490.56 660.94 499.38C660.94 507.49 654.36 514.06 646.25 514.06C637.44 514.06 625.69 514.06 616.88 514.06C608.76 514.06 602.19 507.49 602.19 499.38C602.19 490.56 602.19 478.81 602.19 470C602.19 461.89 608.76 455.31 616.88 455.31C625.69 455.31 637.44 455.31 646.25 455.31Z" id="aRgXntakY"></path><path d="M646.25 528.75C654.36 528.75 660.94 535.33 660.94 543.44C660.94 552.25 660.94 564 660.94 572.81C660.94 580.92 654.36 587.5 646.25 587.5C637.44 587.5 625.69 587.5 616.88 587.5C608.76 587.5 602.19 580.92 602.19 572.81C602.19 564 602.19 552.25 602.19 543.44C602.19 535.33 608.76 528.75 616.88 528.75C625.69 528.75 637.44 528.75 646.25 528.75Z" id="h12zNmVy0q"></path><path d="M719.69 455.31C727.8 455.31 734.38 461.89 734.38 470C734.38 478.81 734.38 490.56 734.38 499.38C734.38 507.49 727.8 514.06 719.69 514.06C710.88 514.06 699.13 514.06 690.31 514.06C682.2 514.06 675.63 507.49 675.63 499.38C675.63 490.56 675.63 478.81 675.63 470C675.63 461.89 682.2 455.31 690.31 455.31C699.13 455.31 710.88 455.31 719.69 455.31Z" id="aR0YOP8vl"></path><path d="M719.69 528.75C727.8 528.75 734.38 535.33 734.38 543.44C734.38 552.25 734.38 564 734.38 572.81C734.38 580.92 727.8 587.5 719.69 587.5C710.88 587.5 699.13 587.5 690.31 587.5C682.2 587.5 675.63 580.92 675.63 572.81C675.63 564 675.63 552.25 675.63 543.44C675.63 535.33 682.2 528.75 690.31 528.75C699.13 528.75 710.88 528.75 719.69 528.75Z" id="bAqTuUIxQ"></path><path d="M646.25 602.19C654.36 602.19 660.94 608.76 660.94 616.88C660.94 625.69 660.94 637.44 660.94 646.25C660.94 654.36 654.36 660.94 646.25 660.94C637.44 660.94 625.69 660.94 616.88 660.94C608.76 660.94 602.19 654.36 602.19 646.25C602.19 637.44 602.19 625.69 602.19 616.88C602.19 608.76 608.76 602.19 616.88 602.19C625.69 602.19 637.44 602.19 646.25 602.19Z" id="h2yUs0Us7M"></path><path d="M646.25 675.63C654.36 675.63 660.94 682.2 660.94 690.31C660.94 699.13 660.94 710.88 660.94 719.69C660.94 727.8 654.36 734.38 646.25 734.38C637.44 734.38 625.69 734.38 616.88 734.38C608.76 734.38 602.19 727.8 602.19 719.69C602.19 710.88 602.19 699.13 602.19 690.31C602.19 682.2 608.76 675.63 616.88 675.63C625.69 675.63 637.44 675.63 646.25 675.63Z" id="fZAunqsO"></path><path d="M719.69 602.19C727.8 602.19 734.38 608.76 734.38 616.88C734.38 625.69 734.38 637.44 734.38 646.25C734.38 654.36 727.8 660.94 719.69 660.94C710.88 660.94 699.13 660.94 690.31 660.94C682.2 660.94 675.63 654.36 675.63 646.25C675.63 637.44 675.63 625.69 675.63 616.88C675.63 608.76 682.2 602.19 690.31 602.19C699.13 602.19 710.88 602.19 719.69 602.19Z" id="b2HR26NiVJ"></path><path d="M719.69 675.63C727.8 675.63 734.38 682.2 734.38 690.31C734.38 699.13 734.38 710.88 734.38 719.69C734.38 727.8 727.8 734.38 719.69 734.38C710.88 734.38 699.13 734.38 690.31 734.38C682.2 734.38 675.63 727.8 675.63 719.69C675.63 710.88 675.63 699.13 675.63 690.31C675.63 682.2 682.2 675.63 690.31 675.63C699.13 675.63 710.88 675.63 719.69 675.63Z" id="bn4IUyDtE"></path><path d="M719.69 88.13C727.8 88.13 734.38 94.7 734.38 102.81C734.38 111.63 734.38 123.38 734.38 132.19C734.38 140.3 727.8 146.88 719.69 146.88C710.88 146.88 699.13 146.88 690.31 146.88C682.2 146.88 675.63 140.3 675.63 132.19C675.63 123.38 675.63 111.63 675.63 102.81C675.63 94.7 682.2 88.13 690.31 88.13C699.13 88.13 710.88 88.13 719.69 88.13Z" id="b6YlwmOYR"></path><path d="M719.69 161.56C727.8 161.56 734.38 168.14 734.38 176.25C734.38 185.06 734.38 196.81 734.38 205.63C734.38 213.74 727.8 220.31 719.69 220.31C710.88 220.31 699.13 220.31 690.31 220.31C682.2 220.31 675.63 213.74 675.63 205.63C675.63 196.81 675.63 185.06 675.63 176.25C675.63 168.14 682.2 161.56 690.31 161.56C699.13 161.56 710.88 161.56 719.69 161.56Z" id="bpjjZMWRx"></path><path d="M719.69 235C727.8 235 734.38 241.58 734.38 249.69C734.38 258.5 734.38 270.25 734.38 279.06C734.38 287.17 727.8 293.75 719.69 293.75C710.88 293.75 699.13 293.75 690.31 293.75C682.2 293.75 675.63 287.17 675.63 279.06C675.63 270.25 675.63 258.5 675.63 249.69C675.63 241.58 682.2 235 690.31 235C699.13 235 710.88 235 719.69 235Z" id="bcgOhRGgC"></path><path d="M646.25 308.44C654.36 308.44 660.94 315.01 660.94 323.13C660.94 331.94 660.94 343.69 660.94 352.5C660.94 360.61 654.36 367.19 646.25 367.19C637.44 367.19 625.69 367.19 616.88 367.19C608.76 367.19 602.19 360.61 602.19 352.5C602.19 343.69 602.19 331.94 602.19 323.13C602.19 315.01 608.76 308.44 616.88 308.44C625.69 308.44 637.44 308.44 646.25 308.44Z" id="bJL3ZPRu"></path><path d="M646.25 88.13C654.36 88.13 660.94 94.7 660.94 102.81C660.94 111.63 660.94 123.38 660.94 132.19C660.94 140.3 654.36 146.88 646.25 146.88C637.44 146.88 625.69 146.88 616.88 146.88C608.76 146.88 602.19 140.3 602.19 132.19C602.19 123.38 602.19 111.63 602.19 102.81C602.19 94.7 608.76 88.13 616.88 88.13C625.69 88.13 637.44 88.13 646.25 88.13Z" id="a80TNNtqE"></path><path d="M646.25 161.56C654.36 161.56 660.94 168.14 660.94 176.25C660.94 185.06 660.94 196.81 660.94 205.63C660.94 213.74 654.36 220.31 646.25 220.31C637.44 220.31 625.69 220.31 616.88 220.31C608.76 220.31 602.19 213.74 602.19 205.63C602.19 196.81 602.19 185.06 602.19 176.25C602.19 168.14 608.76 161.56 616.88 161.56C625.69 161.56 637.44 161.56 646.25 161.56Z" id="eqkgvBxSy"></path><path d="M646.25 235C654.36 235 660.94 241.58 660.94 249.69C660.94 258.5 660.94 270.25 660.94 279.06C660.94 287.17 654.36 293.75 646.25 293.75C637.44 293.75 625.69 293.75 616.88 293.75C608.76 293.75 602.19 287.17 602.19 279.06C602.19 270.25 602.19 258.5 602.19 249.69C602.19 241.58 608.76 235 616.88 235C625.69 235 637.44 235 646.25 235Z" id="b2NnUWJHyF"></path><path d="M719.69 14.69C727.8 14.69 734.38 21.26 734.38 29.38C734.38 38.19 734.38 49.94 734.38 58.75C734.38 66.86 727.8 73.44 719.69 73.44C710.88 73.44 699.13 73.44 690.31 73.44C682.2 73.44 675.63 66.86 675.63 58.75C675.63 49.94 675.63 38.19 675.63 29.38C675.63 21.26 682.2 14.69 690.31 14.69C699.13 14.69 710.88 14.69 719.69 14.69Z" id="du8zVNwmB"></path></defs><g><g><use xlink:href="#azNUJzP9v" opacity="1" fill="#01a8e6" fill-opacity="1"></use></g><g><use xlink:href="#iWfPgkPbV" opacity="1" fill="#01a8e6" fill-opacity="1"></use></g><g><use xlink:href="#e1l1furpDV" opacity="1" fill="#01a8e6" fill-opacity="1"></use></g><g><use xlink:href="#bmTsm1sRb" opacity="1" fill="#01a8e6" fill-opacity="1"></use></g><g><use xlink:href="#dgFxKZI6O" opacity="1" fill="#01a8e6" fill-opacity="1"></use></g><g><use xlink:href="#f1WiMkOYtA" opacity="1" fill="#01a8e6" fill-opacity="1"></use></g><g><use xlink:href="#a4Sk88ByEB" opacity="1" fill="#01a8e6" fill-opacity="1"></use></g><g><use xlink:href="#fnzHtAS1P" opacity="1" fill="#01a8e6" fill-opacity="1"></use></g><g><use xlink:href="#g2hUMz8a" opacity="1" fill="#01a8e6" fill-opacity="1"></use></g><g><use xlink:href="#ap0emTJUn" opacity="1" fill="#01a8e6" fill-opacity="1"></use></g><g><use xlink:href="#d8WIPZjYG" opacity="1" fill="#01a8e6" fill-opacity="1"></use></g><g><use xlink:href="#a5vsQtGE" opacity="1" fill="#01a8e6" fill-opacity="1"></use></g><g><use xlink:href="#b5lh6FSuL" opacity="1" fill="#01a8e6" fill-opacity="1"></use></g><g><use xlink:href="#b3yE0h1Wdo" opacity="1" fill="#01a8e6" fill-opacity="1"></use></g><g><use xlink:href="#a3tLPfmfC2" opacity="1" fill="#01a8e6" fill-opacity="1"></use></g><g><use xlink:href="#c6ch6SRAT" opacity="1" fill="#01a8e6" fill-opacity="1"></use></g><g><use xlink:href="#b4UKUQqGjQ" opacity="1" fill="#01a8e6" fill-opacity="1"></use></g><g><use xlink:href="#ac59xZXat" opacity="1" fill="#01a8e6" fill-opacity="1"></use></g><g><use xlink:href="#e1ijFo1LcD" opacity="1" fill="#01a8e6" fill-opacity="1"></use></g><g><use xlink:href="#a1rflYSrKo" opacity="1" fill="#01a8e6" fill-opacity="1"></use></g><g><use xlink:href="#e7HEPYF7n" opacity="1" fill="#01a8e6" fill-opacity="1"></use></g><g><use xlink:href="#oB5jLXdJ" opacity="1" fill="#01a8e6" fill-opacity="1"></use></g><g><use xlink:href="#a2RL5UOy3g" opacity="1" fill="#01a8e6" fill-opacity="1"></use></g><g><use xlink:href="#b1kKRF6S3O" opacity="1" fill="#01a8e6" fill-opacity="1"></use></g><g><use xlink:href="#cb6eiDHNZ" opacity="1" fill="#01a8e6" fill-opacity="1"></use></g><g><use xlink:href="#ai8lTD59N" opacity="1" fill="#01a8e6" fill-opacity="1"></use></g><g><use xlink:href="#c76PmVQRQ" opacity="1" fill="#01a8e6" fill-opacity="1"></use></g><g><use xlink:href="#beynoXYnJ" opacity="1" fill="#01a8e6" fill-opacity="1"></use></g><g><use xlink:href="#a101yMSIB" opacity="1" fill="#01a8e6" fill-opacity="1"></use></g><g><use xlink:href="#buFAgbdq2" opacity="1" fill="#01a8e6" fill-opacity="1"></use></g><g><use xlink:href="#a6pk8B75Tm" opacity="1" fill="#01a8e6" fill-opacity="1"></use></g><g><use xlink:href="#bOZ5jWulX" opacity="1" fill="#01a8e6" fill-opacity="1"></use></g><g><use xlink:href="#itHjGY76n" opacity="1" fill="#01a8e6" fill-opacity="1"></use></g><g><use xlink:href="#b3bmfTiA5" opacity="1" fill="#01a8e6" fill-opacity="1"></use></g><g><use xlink:href="#a1NW759D7e" opacity="1" fill="#01a8e6" fill-opacity="1"></use></g><g><use xlink:href="#r3xfzrsGD" opacity="1" fill="#01a8e6" fill-opacity="1"></use></g><g><use xlink:href="#a6bf69dwd5" opacity="1" fill="#01a8e6" fill-opacity="1"></use></g><g><use xlink:href="#bE32LxDPb" opacity="1" fill="#01a8e6" fill-opacity="1"></use></g><g><use xlink:href="#c5vEk4DbZ" opacity="1" fill="#01a8e6" fill-opacity="1"></use></g><g><use xlink:href="#frtnK8UOq" opacity="1" fill="#01a8e6" fill-opacity="1"></use></g><g><use xlink:href="#aAhgshDn" opacity="1" fill="#01a8e6" fill-opacity="1"></use></g><g><use xlink:href="#c4BENdqjm" opacity="1" fill="#01a8e6" fill-opacity="1"></use></g><g><use xlink:href="#bpjzn4sMa" opacity="1" fill="#01a8e6" fill-opacity="1"></use></g><g><use xlink:href="#j2T6eKYEi" opacity="1" fill="#01a8e6" fill-opacity="1"></use></g><g><use xlink:href="#b1zU6u3sGO" opacity="1" fill="#01a8e6" fill-opacity="1"></use></g><g><use xlink:href="#a2Tv1Ikl0I" opacity="1" fill="#01a8e6" fill-opacity="1"></use></g><g><use xlink:href="#a34Qy6H5BH" opacity="1" fill="#01a8e6" fill-opacity="1"></use></g><g><use xlink:href="#aFnUuVvcX" opacity="1" fill="#01a8e6" fill-opacity="1"></use></g><g><use xlink:href="#bxPGs19kj" opacity="1" fill="#01a8e6" fill-opacity="1"></use></g><g><use xlink:href="#b2oeAIwdvp" opacity="1" fill="#01a8e6" fill-opacity="1"></use></g><g><use xlink:href="#bJ71IuQr" opacity="1" fill="#01a8e6" fill-opacity="1"></use></g><g><use xlink:href="#a1hbSxLgSz" opacity="1" fill="#01a8e6" fill-opacity="1"></use></g><g><use xlink:href="#a2Dc5h67x" opacity="1" fill="#01a8e6" fill-opacity="1"></use></g><g><use xlink:href="#bzH4QnHY" opacity="1" fill="#01a8e6" fill-opacity="1"></use></g><g><use xlink:href="#a3fRV0JBNO" opacity="1" fill="#01a8e6" fill-opacity="1"></use></g><g><use xlink:href="#e15LdeEre9" opacity="1" fill="#01a8e6" fill-opacity="1"></use></g><g><use xlink:href="#a2NPi56I7" opacity="1" fill="#01a8e6" fill-opacity="1"></use></g><g><use xlink:href="#f1Bs81thPv" opacity="1" fill="#01a8e6" fill-opacity="1"></use></g><g><use xlink:href="#a2A2gTn1R" opacity="1" fill="#01a8e6" fill-opacity="1"></use></g><g><use xlink:href="#a1oGmtmu5B" opacity="1" fill="#01a8e6" fill-opacity="1"></use></g><g><use xlink:href="#d8PnydAKz" opacity="1" fill="#01a8e6" fill-opacity="1"></use></g><g><use xlink:href="#a1oTdhJpxN" opacity="1" fill="#01a8e6" fill-opacity="1"></use></g><g><use xlink:href="#bjqrsk70n" opacity="1" fill="#01a8e6" fill-opacity="1"></use></g><g><use xlink:href="#b8rVs39r7" opacity="1" fill="#01a8e6" fill-opacity="1"></use></g><g><use xlink:href="#aoAZfFmAP" opacity="1" fill="#01a8e6" fill-opacity="1"></use></g><g><use xlink:href="#e5ajtb9OFo" opacity="1" fill="#01a8e6" fill-opacity="1"></use></g><g><use xlink:href="#d34B50ZSci" opacity="1" fill="#01a8e6" fill-opacity="1"></use></g><g><use xlink:href="#a47cy6xpO5" opacity="1" fill="#01a8e6" fill-opacity="1"></use></g><g><use xlink:href="#b62PV3q22" opacity="1" fill="#01a8e6" fill-opacity="1"></use></g><g><use xlink:href="#eWY3yaUuk" opacity="1" fill="#01a8e6" fill-opacity="1"></use></g><g><use xlink:href="#a7fCGhB1E" opacity="1" fill="#01a8e6" fill-opacity="1"></use></g><g><use xlink:href="#ctVYYcTlR" opacity="1" fill="#01a8e6" fill-opacity="1"></use></g><g><use xlink:href="#kP212axoW" opacity="1" fill="#01a8e6" fill-opacity="1"></use></g><g><use xlink:href="#a8SSsvTrzF" opacity="1" fill="#01a8e6" fill-opacity="1"></use></g><g><use xlink:href="#ckBtxkCOg" opacity="1" fill="#01a8e6" fill-opacity="1"></use></g><g><use xlink:href="#b13hps0zTq" opacity="1" fill="#01a8e6" fill-opacity="1"></use></g><g><use xlink:href="#h1wAWfcpnG" opacity="1" fill="#01a8e6" fill-opacity="1"></use></g><g><use xlink:href="#i5LNm33lup" opacity="1" fill="#01a8e6" fill-opacity="1"></use></g><g><use xlink:href="#fqffMdmzQ" opacity="1" fill="#01a8e6" fill-opacity="1"></use></g><g><use xlink:href="#a3OyRlQxzp" opacity="1" fill="#01a8e6" fill-opacity="1"></use></g><g><use xlink:href="#b1iP813QXw" opacity="1" fill="#01a8e6" fill-opacity="1"></use></g><g><use xlink:href="#b54MGb30d8" opacity="1" fill="#01a8e6" fill-opacity="1"></use></g><g><use xlink:href="#a4ArY8th4" opacity="1" fill="#01a8e6" fill-opacity="1"></use></g><g><use xlink:href="#a9RVp73N" opacity="1" fill="#01a8e6" fill-opacity="1"></use></g><g><use xlink:href="#aRgXntakY" opacity="1" fill="#01a8e6" fill-opacity="1"></use></g><g><use xlink:href="#h12zNmVy0q" opacity="1" fill="#01a8e6" fill-opacity="1"></use></g><g><use xlink:href="#aR0YOP8vl" opacity="1" fill="#01a8e6" fill-opacity="1"></use></g><g><use xlink:href="#bAqTuUIxQ" opacity="1" fill="#01a8e6" fill-opacity="1"></use></g><g><use xlink:href="#h2yUs0Us7M" opacity="1" fill="#01a8e6" fill-opacity="1"></use></g><g><use xlink:href="#fZAunqsO" opacity="1" fill="#01a8e6" fill-opacity="1"></use></g><g><use xlink:href="#b2HR26NiVJ" opacity="1" fill="#01a8e6" fill-opacity="1"></use></g><g><use xlink:href="#bn4IUyDtE" opacity="1" fill="#01a8e6" fill-opacity="1"></use></g><g><use xlink:href="#b6YlwmOYR" opacity="1" fill="#01a8e6" fill-opacity="1"></use></g><g><use xlink:href="#bpjjZMWRx" opacity="1" fill="#01a8e6" fill-opacity="1"></use></g><g><use xlink:href="#bcgOhRGgC" opacity="1" fill="#01a8e6" fill-opacity="1"></use></g><g><use xlink:href="#bJL3ZPRu" opacity="1" fill="#01a8e6" fill-opacity="1"></use></g><g><use xlink:href="#a80TNNtqE" opacity="1" fill="#01a8e6" fill-opacity="1"></use></g><g><use xlink:href="#eqkgvBxSy" opacity="1" fill="#01a8e6" fill-opacity="1"></use></g><g><use xlink:href="#b2NnUWJHyF" opacity="1" fill="#01a8e6" fill-opacity="1"></use></g><g><use xlink:href="#du8zVNwmB" opacity="1" fill="#01a8e6" fill-opacity="1"></use></g></g></svg>