<?xml version="1.0" encoding="UTF-8" standalone="no"?>
<!DOCTYPE svg PUBLIC "-//W3C//DTD SVG 1.1//EN" "http://www.w3.org/Graphics/SVG/1.1/DTD/svg11.dtd">
<svg version="1.1" xmlns="http://www.w3.org/2000/svg" xmlns:xlink="http://www.w3.org/1999/xlink" preserveAspectRatio="xMidYMid meet" viewBox="13.6875 13.6875 283.0625 283.0625" width="279.06" height="279.06"><defs><path d="M58.75 14.69C66.86 14.69 73.44 21.26 73.44 29.38C73.44 38.19 73.44 49.94 73.44 58.75C73.44 66.86 66.86 73.44 58.75 73.44C49.94 73.44 38.19 73.44 29.38 73.44C21.26 73.44 14.69 66.86 14.69 58.75C14.69 49.94 14.69 38.19 14.69 29.38C14.69 21.26 21.26 14.69 29.38 14.69C38.19 14.69 49.94 14.69 58.75 14.69Z" id="azNUJzP9v"></path><path d="M132.19 14.69C140.3 14.69 146.88 21.26 146.88 29.38C146.88 38.19 146.88 49.94 146.88 58.75C146.88 66.86 140.3 73.44 132.19 73.44C123.38 73.44 111.63 73.44 102.81 73.44C94.7 73.44 88.13 66.86 88.13 58.75C88.13 49.94 88.13 38.19 88.13 29.38C88.13 21.26 94.7 14.69 102.81 14.69C111.63 14.69 123.38 14.69 132.19 14.69Z" id="iWfPgkPbV"></path><path d="M205.63 14.69C213.74 14.69 220.31 21.26 220.31 29.38C220.31 38.19 220.31 49.94 220.31 58.75C220.31 66.86 213.74 73.44 205.63 73.44C196.81 73.44 185.06 73.44 176.25 73.44C168.14 73.44 161.56 66.86 161.56 58.75C161.56 49.94 161.56 38.19 161.56 29.38C161.56 21.26 168.14 14.69 176.25 14.69C185.06 14.69 196.81 14.69 205.63 14.69Z" id="e1l1furpDV"></path><path d="M279.06 14.69C287.17 14.69 293.75 21.26 293.75 29.38C293.75 38.19 293.75 49.94 293.75 58.75C293.75 66.86 287.17 73.44 279.06 73.44C270.25 73.44 258.5 73.44 249.69 73.44C241.58 73.44 235 66.86 235 58.75C235 49.94 235 38.19 235 29.38C235 21.26 241.58 14.69 249.69 14.69C258.5 14.69 270.25 14.69 279.06 14.69Z" id="bmTsm1sRb"></path><path d="M58.75 88.13C66.86 88.13 73.44 94.7 73.44 102.81C73.44 111.63 73.44 123.38 73.44 132.19C73.44 140.3 66.86 146.88 58.75 146.88C49.94 146.88 38.19 146.88 29.38 146.88C21.26 146.88 14.69 140.3 14.69 132.19C14.69 123.38 14.69 111.63 14.69 102.81C14.69 94.7 21.26 88.13 29.38 88.13C38.19 88.13 49.94 88.13 58.75 88.13Z" id="dgFxKZI6O"></path><path d="M132.19 88.13C140.3 88.13 146.88 94.7 146.88 102.81C146.88 111.63 146.88 123.38 146.88 132.19C146.88 140.3 140.3 146.88 132.19 146.88C123.38 146.88 111.63 146.88 102.81 146.88C94.7 146.88 88.13 140.3 88.13 132.19C88.13 123.38 88.13 111.63 88.13 102.81C88.13 94.7 94.7 88.13 102.81 88.13C111.63 88.13 123.38 88.13 132.19 88.13Z" id="f1WiMkOYtA"></path><path d="M205.63 88.13C213.74 88.13 220.31 94.7 220.31 102.81C220.31 111.63 220.31 123.38 220.31 132.19C220.31 140.3 213.74 146.88 205.63 146.88C196.81 146.88 185.06 146.88 176.25 146.88C168.14 146.88 161.56 140.3 161.56 132.19C161.56 123.38 161.56 111.63 161.56 102.81C161.56 94.7 168.14 88.13 176.25 88.13C185.06 88.13 196.81 88.13 205.63 88.13Z" id="a4Sk88ByEB"></path><path d="M279.06 88.13C287.17 88.13 293.75 94.7 293.75 102.81C293.75 111.63 293.75 123.38 293.75 132.19C293.75 140.3 287.17 146.88 279.06 146.88C270.25 146.88 258.5 146.88 249.69 146.88C241.58 146.88 235 140.3 235 132.19C235 123.38 235 111.63 235 102.81C235 94.7 241.58 88.13 249.69 88.13C258.5 88.13 270.25 88.13 279.06 88.13Z" id="fnzHtAS1P"></path><path d="M58.75 161.56C66.86 161.56 73.44 168.14 73.44 176.25C73.44 185.06 73.44 196.81 73.44 205.63C73.44 213.74 66.86 220.31 58.75 220.31C49.94 220.31 38.19 220.31 29.38 220.31C21.26 220.31 14.69 213.74 14.69 205.63C14.69 196.81 14.69 185.06 14.69 176.25C14.69 168.14 21.26 161.56 29.38 161.56C38.19 161.56 49.94 161.56 58.75 161.56Z" id="g2hUMz8a"></path><path d="M132.19 161.56C140.3 161.56 146.88 168.14 146.88 176.25C146.88 185.06 146.88 196.81 146.88 205.63C146.88 213.74 140.3 220.31 132.19 220.31C123.38 220.31 111.63 220.31 102.81 220.31C94.7 220.31 88.13 213.74 88.13 205.63C88.13 196.81 88.13 185.06 88.13 176.25C88.13 168.14 94.7 161.56 102.81 161.56C111.63 161.56 123.38 161.56 132.19 161.56Z" id="ap0emTJUn"></path><path d="M205.63 161.56C213.74 161.56 220.31 168.14 220.31 176.25C220.31 185.06 220.31 196.81 220.31 205.63C220.31 213.74 213.74 220.31 205.63 220.31C196.81 220.31 185.06 220.31 176.25 220.31C168.14 220.31 161.56 213.74 161.56 205.63C161.56 196.81 161.56 185.06 161.56 176.25C161.56 168.14 168.14 161.56 176.25 161.56C185.06 161.56 196.81 161.56 205.63 161.56Z" id="d8WIPZjYG"></path><path d="M279.06 161.56C287.17 161.56 293.75 168.14 293.75 176.25C293.75 185.06 293.75 196.81 293.75 205.63C293.75 213.74 287.17 220.31 279.06 220.31C270.25 220.31 258.5 220.31 249.69 220.31C241.58 220.31 235 213.74 235 205.63C235 196.81 235 185.06 235 176.25C235 168.14 241.58 161.56 249.69 161.56C258.5 161.56 270.25 161.56 279.06 161.56Z" id="a5vsQtGE"></path><path d="M58.75 235C66.86 235 73.44 241.58 73.44 249.69C73.44 258.5 73.44 270.25 73.44 279.06C73.44 287.17 66.86 293.75 58.75 293.75C49.94 293.75 38.19 293.75 29.38 293.75C21.26 293.75 14.69 287.17 14.69 279.06C14.69 270.25 14.69 258.5 14.69 249.69C14.69 241.58 21.26 235 29.38 235C38.19 235 49.94 235 58.75 235Z" id="b5lh6FSuL"></path><path d="M132.19 235C140.3 235 146.88 241.58 146.88 249.69C146.88 258.5 146.88 270.25 146.88 279.06C146.88 287.17 140.3 293.75 132.19 293.75C123.38 293.75 111.63 293.75 102.81 293.75C94.7 293.75 88.13 287.17 88.13 279.06C88.13 270.25 88.13 258.5 88.13 249.69C88.13 241.58 94.7 235 102.81 235C111.63 235 123.38 235 132.19 235Z" id="b3yE0h1Wdo"></path><path d="M205.63 235C213.74 235 220.31 241.58 220.31 249.69C220.31 258.5 220.31 270.25 220.31 279.06C220.31 287.17 213.74 293.75 205.63 293.75C196.81 293.75 185.06 293.75 176.25 293.75C168.14 293.75 161.56 287.17 161.56 279.06C161.56 270.25 161.56 258.5 161.56 249.69C161.56 241.58 168.14 235 176.25 235C185.06 235 196.81 235 205.63 235Z" id="a3tLPfmfC2"></path><path d="M279.06 235C287.17 235 293.75 241.58 293.75 249.69C293.75 258.5 293.75 270.25 293.75 279.06C293.75 287.17 287.17 293.75 279.06 293.75C270.25 293.75 258.5 293.75 249.69 293.75C241.58 293.75 235 287.17 235 279.06C235 270.25 235 258.5 235 249.69C235 241.58 241.58 235 249.69 235C258.5 235 270.25 235 279.06 235Z" id="c6ch6SRAT"></path></defs><g><g><use xlink:href="#azNUJzP9v" opacity="1" fill="#01a8e6" fill-opacity="1"></use></g><g><use xlink:href="#iWfPgkPbV" opacity="1" fill="#01a8e6" fill-opacity="1"></use></g><g><use xlink:href="#e1l1furpDV" opacity="1" fill="#01a8e6" fill-opacity="1"></use></g><g><use xlink:href="#bmTsm1sRb" opacity="1" fill="#01a8e6" fill-opacity="1"></use></g><g><use xlink:href="#dgFxKZI6O" opacity="1" fill="#01a8e6" fill-opacity="1"></use></g><g><use xlink:href="#f1WiMkOYtA" opacity="1" fill="#01a8e6" fill-opacity="1"></use></g><g><use xlink:href="#a4Sk88ByEB" opacity="1" fill="#01a8e6" fill-opacity="1"></use></g><g><use xlink:href="#fnzHtAS1P" opacity="1" fill="#01a8e6" fill-opacity="1"></use></g><g><use xlink:href="#g2hUMz8a" opacity="1" fill="#01a8e6" fill-opacity="1"></use></g><g><use xlink:href="#ap0emTJUn" opacity="1" fill="#01a8e6" fill-opacity="1"></use></g><g><use xlink:href="#d8WIPZjYG" opacity="1" fill="#01a8e6" fill-opacity="1"></use></g><g><use xlink:href="#a5vsQtGE" opacity="1" fill="#01a8e6" fill-opacity="1"></use></g><g><use xlink:href="#b5lh6FSuL" opacity="1" fill="#01a8e6" fill-opacity="1"></use></g><g><use xlink:href="#b3yE0h1Wdo" opacity="1" fill="#01a8e6" fill-opacity="1"></use></g><g><use xlink:href="#a3tLPfmfC2" opacity="1" fill="#01a8e6" fill-opacity="1"></use></g><g><use xlink:href="#c6ch6SRAT" opacity="1" fill="#01a8e6" fill-opacity="1"></use></g></g></svg>