<?xml version="1.0" encoding="UTF-8" standalone="no"?>
<!DOCTYPE svg PUBLIC "-//W3C//DTD SVG 1.1//EN" "http://www.w3.org/Graphics/SVG/1.1/DTD/svg11.dtd">
<svg version="1.1" xmlns="http://www.w3.org/2000/svg" xmlns:xlink="http://www.w3.org/1999/xlink" preserveAspectRatio="xMidYMid meet" viewBox="13.6875 13.6875 429.9375 429.9375" width="425.94" height="425.94"><defs><path d="M58.75 14.69C66.86 14.69 73.44 21.26 73.44 29.38C73.44 38.19 73.44 49.94 73.44 58.75C73.44 66.86 66.86 73.44 58.75 73.44C49.94 73.44 38.19 73.44 29.38 73.44C21.26 73.44 14.69 66.86 14.69 58.75C14.69 49.94 14.69 38.19 14.69 29.38C14.69 21.26 21.26 14.69 29.38 14.69C38.19 14.69 49.94 14.69 58.75 14.69Z" id="azNUJzP9v"></path><path d="M132.19 14.69C140.3 14.69 146.88 21.26 146.88 29.38C146.88 38.19 146.88 49.94 146.88 58.75C146.88 66.86 140.3 73.44 132.19 73.44C123.38 73.44 111.63 73.44 102.81 73.44C94.7 73.44 88.13 66.86 88.13 58.75C88.13 49.94 88.13 38.19 88.13 29.38C88.13 21.26 94.7 14.69 102.81 14.69C111.63 14.69 123.38 14.69 132.19 14.69Z" id="iWfPgkPbV"></path><path d="M205.63 14.69C213.74 14.69 220.31 21.26 220.31 29.38C220.31 38.19 220.31 49.94 220.31 58.75C220.31 66.86 213.74 73.44 205.63 73.44C196.81 73.44 185.06 73.44 176.25 73.44C168.14 73.44 161.56 66.86 161.56 58.75C161.56 49.94 161.56 38.19 161.56 29.38C161.56 21.26 168.14 14.69 176.25 14.69C185.06 14.69 196.81 14.69 205.63 14.69Z" id="e1l1furpDV"></path><path d="M279.06 14.69C287.17 14.69 293.75 21.26 293.75 29.38C293.75 38.19 293.75 49.94 293.75 58.75C293.75 66.86 287.17 73.44 279.06 73.44C270.25 73.44 258.5 73.44 249.69 73.44C241.58 73.44 235 66.86 235 58.75C235 49.94 235 38.19 235 29.38C235 21.26 241.58 14.69 249.69 14.69C258.5 14.69 270.25 14.69 279.06 14.69Z" id="bmTsm1sRb"></path><path d="M58.75 88.13C66.86 88.13 73.44 94.7 73.44 102.81C73.44 111.63 73.44 123.38 73.44 132.19C73.44 140.3 66.86 146.88 58.75 146.88C49.94 146.88 38.19 146.88 29.38 146.88C21.26 146.88 14.69 140.3 14.69 132.19C14.69 123.38 14.69 111.63 14.69 102.81C14.69 94.7 21.26 88.13 29.38 88.13C38.19 88.13 49.94 88.13 58.75 88.13Z" id="dgFxKZI6O"></path><path d="M132.19 88.13C140.3 88.13 146.88 94.7 146.88 102.81C146.88 111.63 146.88 123.38 146.88 132.19C146.88 140.3 140.3 146.88 132.19 146.88C123.38 146.88 111.63 146.88 102.81 146.88C94.7 146.88 88.13 140.3 88.13 132.19C88.13 123.38 88.13 111.63 88.13 102.81C88.13 94.7 94.7 88.13 102.81 88.13C111.63 88.13 123.38 88.13 132.19 88.13Z" id="f1WiMkOYtA"></path><path d="M205.63 88.13C213.74 88.13 220.31 94.7 220.31 102.81C220.31 111.63 220.31 123.38 220.31 132.19C220.31 140.3 213.74 146.88 205.63 146.88C196.81 146.88 185.06 146.88 176.25 146.88C168.14 146.88 161.56 140.3 161.56 132.19C161.56 123.38 161.56 111.63 161.56 102.81C161.56 94.7 168.14 88.13 176.25 88.13C185.06 88.13 196.81 88.13 205.63 88.13Z" id="a4Sk88ByEB"></path><path d="M279.06 88.13C287.17 88.13 293.75 94.7 293.75 102.81C293.75 111.63 293.75 123.38 293.75 132.19C293.75 140.3 287.17 146.88 279.06 146.88C270.25 146.88 258.5 146.88 249.69 146.88C241.58 146.88 235 140.3 235 132.19C235 123.38 235 111.63 235 102.81C235 94.7 241.58 88.13 249.69 88.13C258.5 88.13 270.25 88.13 279.06 88.13Z" id="fnzHtAS1P"></path><path d="M58.75 161.56C66.86 161.56 73.44 168.14 73.44 176.25C73.44 185.06 73.44 196.81 73.44 205.63C73.44 213.74 66.86 220.31 58.75 220.31C49.94 220.31 38.19 220.31 29.38 220.31C21.26 220.31 14.69 213.74 14.69 205.63C14.69 196.81 14.69 185.06 14.69 176.25C14.69 168.14 21.26 161.56 29.38 161.56C38.19 161.56 49.94 161.56 58.75 161.56Z" id="g2hUMz8a"></path><path d="M132.19 161.56C140.3 161.56 146.88 168.14 146.88 176.25C146.88 185.06 146.88 196.81 146.88 205.63C146.88 213.74 140.3 220.31 132.19 220.31C123.38 220.31 111.63 220.31 102.81 220.31C94.7 220.31 88.13 213.74 88.13 205.63C88.13 196.81 88.13 185.06 88.13 176.25C88.13 168.14 94.7 161.56 102.81 161.56C111.63 161.56 123.38 161.56 132.19 161.56Z" id="ap0emTJUn"></path><path d="M205.63 161.56C213.74 161.56 220.31 168.14 220.31 176.25C220.31 185.06 220.31 196.81 220.31 205.63C220.31 213.74 213.74 220.31 205.63 220.31C196.81 220.31 185.06 220.31 176.25 220.31C168.14 220.31 161.56 213.74 161.56 205.63C161.56 196.81 161.56 185.06 161.56 176.25C161.56 168.14 168.14 161.56 176.25 161.56C185.06 161.56 196.81 161.56 205.63 161.56Z" id="d8WIPZjYG"></path><path d="M279.06 161.56C287.17 161.56 293.75 168.14 293.75 176.25C293.75 185.06 293.75 196.81 293.75 205.63C293.75 213.74 287.17 220.31 279.06 220.31C270.25 220.31 258.5 220.31 249.69 220.31C241.58 220.31 235 213.74 235 205.63C235 196.81 235 185.06 235 176.25C235 168.14 241.58 161.56 249.69 161.56C258.5 161.56 270.25 161.56 279.06 161.56Z" id="a5vsQtGE"></path><path d="M58.75 235C66.86 235 73.44 241.58 73.44 249.69C73.44 258.5 73.44 270.25 73.44 279.06C73.44 287.17 66.86 293.75 58.75 293.75C49.94 293.75 38.19 293.75 29.38 293.75C21.26 293.75 14.69 287.17 14.69 279.06C14.69 270.25 14.69 258.5 14.69 249.69C14.69 241.58 21.26 235 29.38 235C38.19 235 49.94 235 58.75 235Z" id="b5lh6FSuL"></path><path d="M132.19 235C140.3 235 146.88 241.58 146.88 249.69C146.88 258.5 146.88 270.25 146.88 279.06C146.88 287.17 140.3 293.75 132.19 293.75C123.38 293.75 111.63 293.75 102.81 293.75C94.7 293.75 88.13 287.17 88.13 279.06C88.13 270.25 88.13 258.5 88.13 249.69C88.13 241.58 94.7 235 102.81 235C111.63 235 123.38 235 132.19 235Z" id="b3yE0h1Wdo"></path><path d="M205.63 235C213.74 235 220.31 241.58 220.31 249.69C220.31 258.5 220.31 270.25 220.31 279.06C220.31 287.17 213.74 293.75 205.63 293.75C196.81 293.75 185.06 293.75 176.25 293.75C168.14 293.75 161.56 287.17 161.56 279.06C161.56 270.25 161.56 258.5 161.56 249.69C161.56 241.58 168.14 235 176.25 235C185.06 235 196.81 235 205.63 235Z" id="a3tLPfmfC2"></path><path d="M279.06 235C287.17 235 293.75 241.58 293.75 249.69C293.75 258.5 293.75 270.25 293.75 279.06C293.75 287.17 287.17 293.75 279.06 293.75C270.25 293.75 258.5 293.75 249.69 293.75C241.58 293.75 235 287.17 235 279.06C235 270.25 235 258.5 235 249.69C235 241.58 241.58 235 249.69 235C258.5 235 270.25 235 279.06 235Z" id="c6ch6SRAT"></path><path d="M352.5 14.69C360.61 14.69 367.19 21.26 367.19 29.38C367.19 38.19 367.19 49.94 367.19 58.75C367.19 66.86 360.61 73.44 352.5 73.44C343.69 73.44 331.94 73.44 323.13 73.44C315.01 73.44 308.44 66.86 308.44 58.75C308.44 49.94 308.44 38.19 308.44 29.38C308.44 21.26 315.01 14.69 323.13 14.69C331.94 14.69 343.69 14.69 352.5 14.69Z" id="b4UKUQqGjQ"></path><path d="M352.5 88.13C360.61 88.13 367.19 94.7 367.19 102.81C367.19 111.63 367.19 123.38 367.19 132.19C367.19 140.3 360.61 146.88 352.5 146.88C343.69 146.88 331.94 146.88 323.13 146.88C315.01 146.88 308.44 140.3 308.44 132.19C308.44 123.38 308.44 111.63 308.44 102.81C308.44 94.7 315.01 88.13 323.13 88.13C331.94 88.13 343.69 88.13 352.5 88.13Z" id="ac59xZXat"></path><path d="M352.5 161.56C360.61 161.56 367.19 168.14 367.19 176.25C367.19 185.06 367.19 196.81 367.19 205.63C367.19 213.74 360.61 220.31 352.5 220.31C343.69 220.31 331.94 220.31 323.13 220.31C315.01 220.31 308.44 213.74 308.44 205.63C308.44 196.81 308.44 185.06 308.44 176.25C308.44 168.14 315.01 161.56 323.13 161.56C331.94 161.56 343.69 161.56 352.5 161.56Z" id="e1ijFo1LcD"></path><path d="M352.5 235C360.61 235 367.19 241.58 367.19 249.69C367.19 258.5 367.19 270.25 367.19 279.06C367.19 287.17 360.61 293.75 352.5 293.75C343.69 293.75 331.94 293.75 323.13 293.75C315.01 293.75 308.44 287.17 308.44 279.06C308.44 270.25 308.44 258.5 308.44 249.69C308.44 241.58 315.01 235 323.13 235C331.94 235 343.69 235 352.5 235Z" id="a1rflYSrKo"></path><path d="M425.94 14.69C434.05 14.69 440.63 21.26 440.63 29.38C440.63 38.19 440.63 49.94 440.63 58.75C440.63 66.86 434.05 73.44 425.94 73.44C417.13 73.44 405.38 73.44 396.56 73.44C388.45 73.44 381.88 66.86 381.88 58.75C381.88 49.94 381.88 38.19 381.88 29.38C381.88 21.26 388.45 14.69 396.56 14.69C405.38 14.69 417.13 14.69 425.94 14.69Z" id="e7HEPYF7n"></path><path d="M425.94 88.13C434.05 88.13 440.63 94.7 440.63 102.81C440.63 111.63 440.63 123.38 440.63 132.19C440.63 140.3 434.05 146.88 425.94 146.88C417.13 146.88 405.38 146.88 396.56 146.88C388.45 146.88 381.88 140.3 381.88 132.19C381.88 123.38 381.88 111.63 381.88 102.81C381.88 94.7 388.45 88.13 396.56 88.13C405.38 88.13 417.13 88.13 425.94 88.13Z" id="oB5jLXdJ"></path><path d="M425.94 161.56C434.05 161.56 440.63 168.14 440.63 176.25C440.63 185.06 440.63 196.81 440.63 205.63C440.63 213.74 434.05 220.31 425.94 220.31C417.13 220.31 405.38 220.31 396.56 220.31C388.45 220.31 381.88 213.74 381.88 205.63C381.88 196.81 381.88 185.06 381.88 176.25C381.88 168.14 388.45 161.56 396.56 161.56C405.38 161.56 417.13 161.56 425.94 161.56Z" id="a2RL5UOy3g"></path><path d="M425.94 235C434.05 235 440.63 241.58 440.63 249.69C440.63 258.5 440.63 270.25 440.63 279.06C440.63 287.17 434.05 293.75 425.94 293.75C417.13 293.75 405.38 293.75 396.56 293.75C388.45 293.75 381.88 287.17 381.88 279.06C381.88 270.25 381.88 258.5 381.88 249.69C381.88 241.58 388.45 235 396.56 235C405.38 235 417.13 235 425.94 235Z" id="b1kKRF6S3O"></path><path d="M58.75 308.44C66.86 308.44 73.44 315.01 73.44 323.13C73.44 331.94 73.44 343.69 73.44 352.5C73.44 360.61 66.86 367.19 58.75 367.19C49.94 367.19 38.19 367.19 29.38 367.19C21.26 367.19 14.69 360.61 14.69 352.5C14.69 343.69 14.69 331.94 14.69 323.13C14.69 315.01 21.26 308.44 29.38 308.44C38.19 308.44 49.94 308.44 58.75 308.44Z" id="cb6eiDHNZ"></path><path d="M132.19 308.44C140.3 308.44 146.88 315.01 146.88 323.13C146.88 331.94 146.88 343.69 146.88 352.5C146.88 360.61 140.3 367.19 132.19 367.19C123.38 367.19 111.63 367.19 102.81 367.19C94.7 367.19 88.13 360.61 88.13 352.5C88.13 343.69 88.13 331.94 88.13 323.13C88.13 315.01 94.7 308.44 102.81 308.44C111.63 308.44 123.38 308.44 132.19 308.44Z" id="ai8lTD59N"></path><path d="M205.63 308.44C213.74 308.44 220.31 315.01 220.31 323.13C220.31 331.94 220.31 343.69 220.31 352.5C220.31 360.61 213.74 367.19 205.63 367.19C196.81 367.19 185.06 367.19 176.25 367.19C168.14 367.19 161.56 360.61 161.56 352.5C161.56 343.69 161.56 331.94 161.56 323.13C161.56 315.01 168.14 308.44 176.25 308.44C185.06 308.44 196.81 308.44 205.63 308.44Z" id="c76PmVQRQ"></path><path d="M279.06 308.44C287.17 308.44 293.75 315.01 293.75 323.13C293.75 331.94 293.75 343.69 293.75 352.5C293.75 360.61 287.17 367.19 279.06 367.19C270.25 367.19 258.5 367.19 249.69 367.19C241.58 367.19 235 360.61 235 352.5C235 343.69 235 331.94 235 323.13C235 315.01 241.58 308.44 249.69 308.44C258.5 308.44 270.25 308.44 279.06 308.44Z" id="beynoXYnJ"></path><path d="M58.75 381.88C66.86 381.88 73.44 388.45 73.44 396.56C73.44 405.38 73.44 417.13 73.44 425.94C73.44 434.05 66.86 440.63 58.75 440.63C49.94 440.63 38.19 440.63 29.38 440.63C21.26 440.63 14.69 434.05 14.69 425.94C14.69 417.13 14.69 405.38 14.69 396.56C14.69 388.45 21.26 381.88 29.38 381.88C38.19 381.88 49.94 381.88 58.75 381.88Z" id="a101yMSIB"></path><path d="M132.19 381.88C140.3 381.88 146.88 388.45 146.88 396.56C146.88 405.38 146.88 417.13 146.88 425.94C146.88 434.05 140.3 440.63 132.19 440.63C123.38 440.63 111.63 440.63 102.81 440.63C94.7 440.63 88.13 434.05 88.13 425.94C88.13 417.13 88.13 405.38 88.13 396.56C88.13 388.45 94.7 381.88 102.81 381.88C111.63 381.88 123.38 381.88 132.19 381.88Z" id="buFAgbdq2"></path><path d="M205.63 381.88C213.74 381.88 220.31 388.45 220.31 396.56C220.31 405.38 220.31 417.13 220.31 425.94C220.31 434.05 213.74 440.63 205.63 440.63C196.81 440.63 185.06 440.63 176.25 440.63C168.14 440.63 161.56 434.05 161.56 425.94C161.56 417.13 161.56 405.38 161.56 396.56C161.56 388.45 168.14 381.88 176.25 381.88C185.06 381.88 196.81 381.88 205.63 381.88Z" id="a6pk8B75Tm"></path><path d="M279.06 381.88C287.17 381.88 293.75 388.45 293.75 396.56C293.75 405.38 293.75 417.13 293.75 425.94C293.75 434.05 287.17 440.63 279.06 440.63C270.25 440.63 258.5 440.63 249.69 440.63C241.58 440.63 235 434.05 235 425.94C235 417.13 235 405.38 235 396.56C235 388.45 241.58 381.88 249.69 381.88C258.5 381.88 270.25 381.88 279.06 381.88Z" id="bOZ5jWulX"></path><path d="M352.5 308.44C360.61 308.44 367.19 315.01 367.19 323.13C367.19 331.94 367.19 343.69 367.19 352.5C367.19 360.61 360.61 367.19 352.5 367.19C343.69 367.19 331.94 367.19 323.13 367.19C315.01 367.19 308.44 360.61 308.44 352.5C308.44 343.69 308.44 331.94 308.44 323.13C308.44 315.01 315.01 308.44 323.13 308.44C331.94 308.44 343.69 308.44 352.5 308.44Z" id="itHjGY76n"></path><path d="M352.5 381.88C360.61 381.88 367.19 388.45 367.19 396.56C367.19 405.38 367.19 417.13 367.19 425.94C367.19 434.05 360.61 440.63 352.5 440.63C343.69 440.63 331.94 440.63 323.13 440.63C315.01 440.63 308.44 434.05 308.44 425.94C308.44 417.13 308.44 405.38 308.44 396.56C308.44 388.45 315.01 381.88 323.13 381.88C331.94 381.88 343.69 381.88 352.5 381.88Z" id="b3bmfTiA5"></path><path d="M425.94 308.44C434.05 308.44 440.63 315.01 440.63 323.13C440.63 331.94 440.63 343.69 440.63 352.5C440.63 360.61 434.05 367.19 425.94 367.19C417.13 367.19 405.38 367.19 396.56 367.19C388.45 367.19 381.88 360.61 381.88 352.5C381.88 343.69 381.88 331.94 381.88 323.13C381.88 315.01 388.45 308.44 396.56 308.44C405.38 308.44 417.13 308.44 425.94 308.44Z" id="a1NW759D7e"></path><path d="M425.94 381.88C434.05 381.88 440.63 388.45 440.63 396.56C440.63 405.38 440.63 417.13 440.63 425.94C440.63 434.05 434.05 440.63 425.94 440.63C417.13 440.63 405.38 440.63 396.56 440.63C388.45 440.63 381.88 434.05 381.88 425.94C381.88 417.13 381.88 405.38 381.88 396.56C381.88 388.45 388.45 381.88 396.56 381.88C405.38 381.88 417.13 381.88 425.94 381.88Z" id="r3xfzrsGD"></path></defs><g><g><use xlink:href="#azNUJzP9v" opacity="1" fill="#01a8e6" fill-opacity="1"></use></g><g><use xlink:href="#iWfPgkPbV" opacity="1" fill="#01a8e6" fill-opacity="1"></use></g><g><use xlink:href="#e1l1furpDV" opacity="1" fill="#01a8e6" fill-opacity="1"></use></g><g><use xlink:href="#bmTsm1sRb" opacity="1" fill="#01a8e6" fill-opacity="1"></use></g><g><use xlink:href="#dgFxKZI6O" opacity="1" fill="#01a8e6" fill-opacity="1"></use></g><g><use xlink:href="#f1WiMkOYtA" opacity="1" fill="#01a8e6" fill-opacity="1"></use></g><g><use xlink:href="#a4Sk88ByEB" opacity="1" fill="#01a8e6" fill-opacity="1"></use></g><g><use xlink:href="#fnzHtAS1P" opacity="1" fill="#01a8e6" fill-opacity="1"></use></g><g><use xlink:href="#g2hUMz8a" opacity="1" fill="#01a8e6" fill-opacity="1"></use></g><g><use xlink:href="#ap0emTJUn" opacity="1" fill="#01a8e6" fill-opacity="1"></use></g><g><use xlink:href="#d8WIPZjYG" opacity="1" fill="#01a8e6" fill-opacity="1"></use></g><g><use xlink:href="#a5vsQtGE" opacity="1" fill="#01a8e6" fill-opacity="1"></use></g><g><use xlink:href="#b5lh6FSuL" opacity="1" fill="#01a8e6" fill-opacity="1"></use></g><g><use xlink:href="#b3yE0h1Wdo" opacity="1" fill="#01a8e6" fill-opacity="1"></use></g><g><use xlink:href="#a3tLPfmfC2" opacity="1" fill="#01a8e6" fill-opacity="1"></use></g><g><use xlink:href="#c6ch6SRAT" opacity="1" fill="#01a8e6" fill-opacity="1"></use></g><g><use xlink:href="#b4UKUQqGjQ" opacity="1" fill="#01a8e6" fill-opacity="1"></use></g><g><use xlink:href="#ac59xZXat" opacity="1" fill="#01a8e6" fill-opacity="1"></use></g><g><use xlink:href="#e1ijFo1LcD" opacity="1" fill="#01a8e6" fill-opacity="1"></use></g><g><use xlink:href="#a1rflYSrKo" opacity="1" fill="#01a8e6" fill-opacity="1"></use></g><g><use xlink:href="#e7HEPYF7n" opacity="1" fill="#01a8e6" fill-opacity="1"></use></g><g><use xlink:href="#oB5jLXdJ" opacity="1" fill="#01a8e6" fill-opacity="1"></use></g><g><use xlink:href="#a2RL5UOy3g" opacity="1" fill="#01a8e6" fill-opacity="1"></use></g><g><use xlink:href="#b1kKRF6S3O" opacity="1" fill="#01a8e6" fill-opacity="1"></use></g><g><use xlink:href="#cb6eiDHNZ" opacity="1" fill="#01a8e6" fill-opacity="1"></use></g><g><use xlink:href="#ai8lTD59N" opacity="1" fill="#01a8e6" fill-opacity="1"></use></g><g><use xlink:href="#c76PmVQRQ" opacity="1" fill="#01a8e6" fill-opacity="1"></use></g><g><use xlink:href="#beynoXYnJ" opacity="1" fill="#01a8e6" fill-opacity="1"></use></g><g><use xlink:href="#a101yMSIB" opacity="1" fill="#01a8e6" fill-opacity="1"></use></g><g><use xlink:href="#buFAgbdq2" opacity="1" fill="#01a8e6" fill-opacity="1"></use></g><g><use xlink:href="#a6pk8B75Tm" opacity="1" fill="#01a8e6" fill-opacity="1"></use></g><g><use xlink:href="#bOZ5jWulX" opacity="1" fill="#01a8e6" fill-opacity="1"></use></g><g><use xlink:href="#itHjGY76n" opacity="1" fill="#01a8e6" fill-opacity="1"></use></g><g><use xlink:href="#b3bmfTiA5" opacity="1" fill="#01a8e6" fill-opacity="1"></use></g><g><use xlink:href="#a1NW759D7e" opacity="1" fill="#01a8e6" fill-opacity="1"></use></g><g><use xlink:href="#r3xfzrsGD" opacity="1" fill="#01a8e6" fill-opacity="1"></use></g></g></svg>